<?xml version="1.0" encoding="UTF-8" standalone="no"?><!DOCTYPE svg PUBLIC "-//W3C//DTD SVG 1.1//EN" "http://www.w3.org/Graphics/SVG/1.1/DTD/svg11.dtd"><svg width="100%" height="100%" viewBox="0 0 1280 800" version="1.1" xmlns="http://www.w3.org/2000/svg" xmlns:xlink="http://www.w3.org/1999/xlink" xml:space="preserve" xmlns:serif="http://www.serif.com/" style="fill-rule:evenodd;clip-rule:evenodd;stroke-linecap:round;stroke-linejoin:round;stroke-miterlimit:1.5;"><path id="C" d="M264.806,188.305l-122.817,-22.617l0,182.663l126.516,-17.64" style="fill:none;stroke:#000;stroke-width:1px;"/><path id="O" d="M297.884,167.838l0,176.785l120.689,0l0,-178.786l-120.689,2.001Z" style="fill:none;stroke:#000;stroke-width:1px;"/><path id="N" d="M457.001,342.582l0,-179.742l121.199,185.389l0,-186.788" style="fill:none;stroke:#000;stroke-width:1px;"/><path id="S" d="M733.54,167.181l-123.468,0l135.945,177.533l-137.672,0" style="fill:none;stroke:#000;stroke-width:1px;"/><path id="T" d="M768.338,165.049l144.038,0l-82.715,180.217" style="fill:none;stroke:#000;stroke-width:1px;"/><path id="E" d="M1064.27,167.562l-119.602,0l26.421,82.11l-22.466,96.177l128.932,0" style="fill:none;stroke:#000;stroke-width:1px;"/><path id="L" d="M628.711,443.782l0,205.232l143.174,0" style="fill:none;stroke:#000;stroke-width:1px;"/><path id="A" d="M807.82,651.18l78.101,-207.433l89.28,207.461l-124.789,0.182" style="fill:none;stroke:#000;stroke-width:1px;"/><path id="P" d="M1020.38,650.27l0,-216.444l148.571,0l0,104.209l-128.599,0" style="fill:none;stroke:#000;stroke-width:1px;"/></svg>